# AST/ASF file generated using VICON BodyLanguage
# -----------------------------------------------
:version 1.10
:name VICON
:units
  mass 1.0
  length 0.45
  angle deg
:documentation
   .ast/.asf automatically generated from VICON data using
   VICON BodyBuilder and BodyLanguage model FoxedUp or BRILLIANT.MOD
:root
   order TX TY TZ RX RY RZ
   axis XYZ
   position 0 0 0  
   orientation 0 0 0 
:bonedata
  begin
     id 1 
     name lhipjoint
     direction 0.561145 -0.797705 0.220866 
     length 2.46425 
     axis 0 0 0  XYZ
  end
  begin
     id 2 
     name lfemur
     direction 0.34202 -0.939693 0  
     length 7.95556  
     axis 0 0 20  XYZ
    dof rx ry rz
    limits (-160.0 20.0)
           (-70.0 70.0)
           (-60.0 70.0)
  end
  begin
     id 3 
     name ltibia
     direction 0.34202 -0.939693 0   
     length 7.9832   
     axis 0 0 20   XYZ
    dof rx
    limits (-10.0 170.0)
  end
  begin
     id 4 
     name lfoot
     direction 0.0723927 -0.198897 0.977343   
     length 2.23085   
     axis -90 7.62852e-016 20   XYZ
    dof rx rz
    limits (-45.0 90.0)
           (-70.0 20.0)
  end
  begin
     id 5 
     name ltoes
     direction 1.53826e-011 -4.21988e-011 1   
     length 1.12127   
     axis -90 7.62852e-016 20   XYZ
    dof rx
    limits (-90.0 20.0)
  end
  begin
     id 6 
     name rhipjoint
     direction -0.610499 -0.763299 0.21134   
     length 2.57533  
     axis 0 0 0  XYZ 
  end
  begin
     id 7 
     name rfemur
     direction -0.34202 -0.939693 0   
     length 8.65257   
     axis 0 0 -20   XYZ
    dof rx ry rz
    limits (-160.0 20.0)
           (-70.0 70.0)
           (-70.0 60.0)
  end
  begin
     id 8 
     name rtibia
     direction -0.342021 -0.939692 0   
     length 7.37807   
     axis 0 0 -20   XYZ
    dof rx
    limits (-10.0 170.0)
 end
 begin
     id 9 
     name rfoot
     direction -0.0239304 -0.0543852 0.998233   
     length 1.87018  
     axis -90 -7.62852e-016 -20   XYZ
    dof rx rz
    limits (-45.0 90.0)
           (-20.0 70.0)
  end
  begin
     id 10 
     name rtoes
     direction -1.53584e-011 -4.2242e-011 1   
     length 0.951568   
     axis -90 -7.62852e-016 -20   XYZ
    dof rx
    limits (-90.0 20.0)
  end
  begin
     id 11 
     name lowerback
     direction 0.00322089 0.999033 0.0438587   
     length 2.07568   
     axis 0 0 0   XYZ
    dof rx ry rz
    limits (-20.0 45.0)
           (-30.0 30.0)
           (-30.0 30.0)
  end
  begin
     id 12 
     name upperback
     direction -0.00321932 0.999732 -0.0229403   
     length 2.06253   
     axis 0 0 0   XYZ
    dof rx ry rz
    limits (-20.0 45.0)
           (-30.0 30.0)
           (-30.0 30.0)
  end
  begin
     id 13 
     name thorax
     direction -0.00537537 0.998955 -0.0453918   
     length 2.06975   
     axis 0 0 0   XYZ
    dof rx ry rz
    limits (-20.0 45.0)
           (-30.0 30.0)
           (-30.0 30.0)
  end
  begin
     id 14 
     name lowerneck
     direction -0.00013604 0.994111 0.108363   
     length 1.50836   
     axis 0 0 0   XYZ
    dof rx ry rz
    limits (-20.0 45.0)
           (-30.0 30.0)
           (-30.0 30.0)
  end
  begin
     id 15 
     name upperneck
     direction 0.0397262 0.983859 -0.174482   
     length 1.53037   
     axis 0 0 0   XYZ
    dof rx ry rz
    limits (-20.0 45.0)
           (-30.0 30.0)
           (-30.0 30.0)
  end
  begin
     id 16
     name head
     direction 0.0109991 0.997082 -0.0755378  
     length 1.56928  
     axis 0 0 0   XYZ
    dof rx ry rz
    limits (-20.0 45.0)
           (-30.0 30.0)
           (-30.0 30.0)
  end
  begin
     id 17 
     name lclavicle
     direction 0.964749 0.254 -0.068874  
     length 3.26503  
     axis 0 0 0   XYZ
    dof ry rz
    limits (-20.0 10.0)
           (0.0 20.0)
  end
  begin
     id 18 
     name lhumerus
     direction 1 -4.48941e-011 -2.05079e-027   
     length 5.68236   
     axis 180 -30 -90   XYZ
    dof rx ry rz
    limits (-60.0 90.0)
           (-90.0 90.0)
           (-90.0 90.0)
  end
  begin
     id 19
     name lradius
     direction 1 -4.48956e-011 6.2882e-027   
     length 3.17112   
     axis 180 -30 -90   XYZ
    dof rx
    limits (-10.0 170.0)
  end
  begin
     id 20
     name lwrist
     direction 1 -4.49014e-011 1.73219e-026   
     length 1.58556   
     axis -1.04724e-014 90 90   XYZ
    dof ry
    limits (-180.0 0.0)
 end
  begin
     id 21 
     name lhand
     direction 1 -4.49312e-011 3.46438e-026   
     length 0.632691   
     axis -2.21057e-014 90 90   XYZ
    dof rx rz
    limits (-90.0 90.0)
           (-45.0 45.0)
  end
  begin
     id 22 
     name lfingers
     direction 1 -4.48894e-011 6.92876e-026   
     length 0.510091   
     axis -4.42114e-014 90 90   XYZ
    dof rx
    limits (0.0 90.0)
  end
  begin
     id 23
     name lthumb
     direction 0.707107 -6.34705e-011 0.707107   
     length 0.732392   
     axis -90 45 2.85299e-015   XYZ
    dof rx rz
    limits (-45.0 45.0)
           (-45.0 45.0)
  end
  begin
     id 24 
     name rclavicle
     direction -0.954374 0.280496 -0.102435   
     length 3.25419  
     axis 0 0 0   XYZ 
    dof ry rz
    limits (-10.0 20.0)
           (-20.0 0.0)
  end
  begin
     id 25 
     name rhumerus
     direction -1 -4.48994e-011 -1.07204e-017  
     length 5.8712   
     axis 180 30 90   XYZ
    dof rx ry rz
    limits (-90.0 60.0)
           (-90.0 90.0)
           (-90.0 90.0)
  end
  begin
     id 26 
     name rradius
     direction -1 -4.48972e-011 5.89292e-027   
     length 3.37589   
     axis 180 30 90   XYZ
    dof rx
    limits (-10.0 170.0)
  end
  begin
     id 27 
     name rwrist
     direction -1 -4.48942e-011 1.73219e-026   
     length 1.68794   
     axis -1.04724e-014 -90 -90   XYZ
    dof ry
    limits (-180.0 0.0)
  end
  begin
     id 28
     name rhand
     direction -1 -4.48514e-011 3.46438e-026   
     length 0.603257   
     axis -2.21057e-014 -90 -90   XYZ
    dof rx rz
    limits (-90.0 90.0)
           (-45.0 45.0)
  end
  begin
     id 29
     name rfingers
     direction -1 -4.50028e-011 6.92876e-026   
     length 0.486362   
     axis -4.42114e-014 -90 -90   XYZ
    dof rx
    limits (0.0 90.0)
  end
  begin
     id 30
     name rthumb
     direction -0.707107 -6.34926e-011 0.707107   
     length 0.698321   
     axis -90 -45 -2.85299e-015   XYZ
    dof rx rz
    limits (-45.0 45.0)
           (-45.0 45.0)
  end
:hierarchy
  begin
    root lhipjoint rhipjoint lowerback
    lhipjoint lfemur
    lfemur ltibia
    ltibia lfoot
    lfoot ltoes
    rhipjoint rfemur
    rfemur rtibia
    rtibia rfoot
    rfoot rtoes
    lowerback upperback
    upperback thorax
    thorax lowerneck lclavicle rclavicle
    lowerneck upperneck
    upperneck head
    lclavicle lhumerus
    lhumerus lradius
    lradius lwrist
    lwrist lhand lthumb
    lhand lfingers
    rclavicle rhumerus
    rhumerus rradius
    rradius rwrist
    rwrist rhand rthumb
    rhand rfingers
  end

#!OML:ASF I:\Segmentation\Patient Classification 1\Patient 1\Session 1\Patient1.ASF
:FULLY-SPECIFIED
:DEGREES
144
root 13.6331 17.7382 1.73558 7.44946 -82.539 5.72707
lowerback -8.52335 -0.772637 -0.826105
upperback 1.75731 -1.04121 1.46753
thorax 6.67461 -0.577407 1.85601
lowerneck -15.9585 -3.07399 -5.25001
upperneck 14.7197 -3.69994 4.03853
head 7.3171 -1.70624 1.77205
rclavicle 2.33572e-014 -5.1684e-015
rhumerus -38.5835 -16.8564 -74.0356
rradius 30.3199
rwrist 18.2027
rhand -17.4057 31.605
rfingers 7.12502
rthumb 8.84386 1.81035
lclavicle 2.33572e-014 -5.1684e-015
lhumerus -31.6891 -4.5635 91.9857
lradius 30.3561
lwrist 14.9732
lhand -12.1548 33.9404
lfingers 7.12502
lthumb 13.9079 63.4554
rfemur -45.5033 4.95971 18.84
rtibia 37.6754
rfoot -2.02502 -1.07941
rtoes 33.1394
lfemur -13.0457 -3.05903 -24.9027
ltibia 36.4178
lfoot -27.8163 -4.80259
ltoes -9.9674
145
root 13.5443 17.7388 1.73629 7.66596 -82.6625 5.55536
lowerback -8.40194 -0.648114 -0.495686
upperback 1.69862 -0.908457 1.43592
thorax 6.53131 -0.497648 1.65624
lowerneck -15.9396 -3.15424 -5.36526
upperneck 14.7264 -3.80402 4.15064
head 7.32576 -1.75247 1.81607
rclavicle 1.15295e-014 5.1684e-015
rhumerus -38.4752 -17.0341 -73.9139
rradius 30.0397
rwrist 18.3725
rhand -17.3147 31.3516
rfingers 7.12502
rthumb 8.93165 1.56068
lclavicle 1.15295e-014 5.1684e-015
lhumerus -31.9015 -4.18248 91.7695
lradius 30.6429
lwrist 15.0305
lhand -12.4585 34.0557
lfingers 7.12502
lthumb 13.6152 63.5905
rfemur -45.3982 4.57433 19.1552
rtibia 37.9854
rfoot -1.5753 -0.858185
rtoes 34.1624
lfemur -12.8549 -2.94445 -24.845
ltibia 36.5385
lfoot -27.4129 -4.89763
ltoes -9.3565
146
root 13.4515 17.74 1.73414 7.6597 -82.7453 5.55913
lowerback -8.32155 -0.590815 -0.293569
upperback 1.68772 -0.856154 1.47162
thorax 6.46947 -0.464922 1.58753
lowerneck -15.989 -3.18817 -5.47208
upperneck 14.7659 -3.82301 4.14832
head 7.35035 -1.76714 1.8301
rclavicle -5.36719e-015 4.37326e-015
rhumerus -38.2416 -17.1251 -73.7721
rradius 29.7091
rwrist 18.4476
rhand -17.1868 31.2205
rfingers 7.12502
rthumb 9.05509 1.43486
lclavicle -5.36719e-015 4.37326e-015
lhumerus -32.1145 -3.81545 91.6379
lradius 31.0201
lwrist 15.3411
lhand -12.7339 34.2409
lfingers 7.12502
lthumb 13.3497 63.7932
rfemur -45.2016 4.27426 19.4073
rtibia 38.2297
rfoot -1.3083 -0.556139
rtoes 34.4251
lfemur -12.5975 -2.76951 -24.7845
ltibia 36.6415
lfoot -26.9597 -4.91521
ltoes -9.92302
147
root 13.3567 17.7458 1.7331 6.82826 -82.8149 6.41464
lowerback -8.30955 -0.558735 -0.271472
upperback 1.71412 -0.820774 1.53754
thorax 6.49025 -0.448569 1.64916
lowerneck -16.1654 -3.19996 -5.60728
upperneck 14.8271 -3.787 4.08924
head 7.40059 -1.76057 1.83511
rclavicle -9.54166e-015 -1.35174e-014
rhumerus -37.8859 -17.2018 -73.5698
rradius 29.3265
rwrist 18.7338
rhand -17.2651 31.2097
rfingers 7.12502
rthumb 8.9795 1.42078
lclavicle -9.54166e-015 -1.35174e-014
lhumerus -32.2913 -3.48878 91.6038
lradius 31.4344
lwrist 15.707
lhand -12.9429 34.4123
lfingers 7.12502
lthumb 13.1483 63.9778
rfemur -45.0035 4.01067 19.5121
rtibia 38.4139
rfoot -1.11522 -0.267904
rtoes 34.0943
lfemur -12.3791 -2.53988 -24.8446
ltibia 36.742
lfoot -26.4986 -4.8306
ltoes -11.1158
148
root 13.2595 17.7584 1.73198 5.45164 -82.8914 7.87755
lowerback -8.39795 -0.479674 -0.287058
upperback 1.74181 -0.715425 1.55145
thorax 6.56716 -0.398219 1.68687
lowerneck -16.301 -3.24895 -5.68833
upperneck 14.8432 -3.80738 3.98883
head 7.43003 -1.78216 1.81153
rclavicle -5.96354e-015 2.38542e-014
rhumerus -37.5265 -17.4172 -73.3601
rradius 28.9639
rwrist 19.0765
rhand -17.279 31.1329
rfingers 7.12502
rthumb 8.96616 1.34339
lclavicle -5.96354e-015 2.38542e-014
lhumerus -32.4641 -3.32939 91.5928
lradius 31.8269
lwrist 16.0083
lhand -13.1258 34.3931
lfingers 7.12502
lthumb 12.972 63.9699
rfemur -44.825 3.72 19.5329
rtibia 38.5389
rfoot -0.875333 0.0779059
rtoes 33.8705
lfemur -12.2654 -2.18206 -24.9779
ltibia 36.886
lfoot -25.9169 -4.63113
ltoes -12.7818
149
root 13.162 17.7741 1.72894 4.91999 -82.9089 8.4824
lowerback -8.46732 -0.428137 -0.180016
upperback 1.74957 -0.662004 1.59192
thorax 6.61261 -0.36916 1.67627
lowerneck -16.2994 -3.2788 -5.7538
upperneck 14.766 -3.80247 3.84477
head 7.40275 -1.79637 1.77523
rclavicle 5.96354e-016 -7.15625e-015
rhumerus -37.2005 -17.5284 -73.2011
rradius 28.6599
rwrist 19.2756
rhand -17.2059 31.0853
rfingers 7.12502
rthumb 9.03669 1.29886
lclavicle 5.96354e-016 -7.15625e-015
lhumerus -32.6383 -3.1152 91.5407
lradius 32.1735
lwrist 16.2718
lhand -13.2166 34.2455
lfingers 7.12502
lthumb 12.8844 63.8278
rfemur -44.5864 3.49511 19.626
rtibia 38.636
rfoot -0.61551 0.442665
rtoes 33.9459
lfemur -12.1619 -1.87088 -24.9403
ltibia 37.099
lfoot -25.185 -4.6973
ltoes -13.5729
